<?xml version="1.0" encoding="UTF-8" standalone="no"?>
<svg  viewBox="0 0 64 64" version="1.1" xmlns="http://www.w3.org/2000/svg" xmlns:xlink="http://www.w3.org/1999/xlink">

    <title>con-warning</title>
    <desc>Created with Sketch.</desc>
    <defs>

</defs>
    <g id="64px-Line" stroke="#E2E6E9" stroke-width="1" fill="none" fill-rule="evenodd">
        <g id="con-warning">

</g>
        <path d="M31,42 C29.346,42 28,43.346 28,45 C28,46.654 29.346,48 31,48 C32.654,48 34,46.654 34,45 C34,43.346 32.654,42 31,42 L31,42 Z M31,46 C30.449,46 30,45.552 30,45 C30,44.448 30.449,44 31,44 C31.551,44 32,44.448 32,45 C32,45.552 31.551,46 31,46 L31,46 Z" id="Shape" fill="#000000">

</path>
        <path d="M28.001,37.091 C28.049,38.703 29.376,40 31,40 C32.624,40 33.951,38.703 33.999,37.091 L35.987,25.165 C35.996,25.11 36,25.055 36,25 C36,22.243 33.757,20 31,20 C28.243,20 26,22.243 26,25 C26,25.055 26.004,25.11 26.014,25.165 L28.001,37.091 L28.001,37.091 Z M31,22 C32.628,22 33.958,23.304 33.999,24.923 L32.014,36.836 C32.004,36.89 32,36.945 32,37 C32,37.552 31.551,38 31,38 C30.449,38 30,37.552 30,37 C30,36.945 29.996,36.89 29.986,36.836 L28.001,24.923 C28.042,23.304 29.372,22 31,22 L31,22 Z" id="Shape" fill="#000000">

</path>
        <path d="M9,56 L53,56 C56.86,56 60,52.859 60,49 C60,47.581 59.348,46.063 59.273,45.895 C59.252,45.847 59.227,45.8 59.198,45.756 L36.754,11.023 C36.735,10.99 36.715,10.958 36.692,10.927 C35.379,9.094 33.25,8 31,8 C28.75,8 26.621,9.094 25.308,10.926 C25.286,10.957 25.266,10.989 25.247,11.022 L2.802,45.756 C2.773,45.8 2.748,45.847 2.727,45.895 C2.652,46.063 2,47.581 2,49 C2,52.859 5.14,56 9,56 L9,56 Z M4.528,46.77 L26.962,12.053 C26.964,12.05 26.966,12.046 26.968,12.043 C27.909,10.763 29.412,10 31,10 C32.588,10 34.09,10.763 35.032,12.043 C35.034,12.046 35.036,12.049 35.038,12.053 L57.472,46.77 C57.643,47.181 58,48.206 58,49 C58,51.757 55.757,54 53,54 L9,54 C6.243,54 4,51.757 4,49 C4,48.205 4.357,47.181 4.528,46.77 L4.528,46.77 Z" id="Shape" fill="#000000">

</path>
    </g>
</svg>
